<?xml version="1.0" encoding="utf-8"?>
<!-- Generator: Adobe Illustrator 26.2.1, SVG Export Plug-In . SVG Version: 6.00 Build 0)  -->
<svg version="1.1" id="Capa_1" xmlns="http://www.w3.org/2000/svg" xmlns:xlink="http://www.w3.org/1999/xlink" x="0px" y="0px"
	 viewBox="0 0 792 235.3" style="enable-background:new 0 0 792 235.3;" xml:space="preserve">
<style type="text/css">
	.st0{fill:#0075C9;}
	.st1{fill:#1D1D1B;}
	.st2{fill:#F18A00;}
</style>
<g>
	<g>
		<g>
			<g>
				<g>
					<path class="st0" d="M373.9,68.96v14.19c0,2.03,0.35,3.51,1.04,4.44c1.03,1.36,2.48,2.03,4.36,2.03c1.88,0,3.34-0.68,4.37-2.03
						c0.7-0.9,1.04-2.38,1.04-4.44V68.96h3.72v15.17c0,2.48-0.8,4.53-2.43,6.14c-1.81,1.79-4.05,2.69-6.69,2.69
						c-2.65,0-4.88-0.9-6.68-2.69c-1.63-1.61-2.43-3.66-2.43-6.14V68.96H373.9z"/>
				</g>
				<g>
					<polygon class="st0" points="394.32,92.52 394.32,67.35 412.29,85.33 412.29,68.96 416,68.96 416,93.96 398.04,76.03 
						398.04,92.52 					"/>
				</g>
				<g>
					<rect x="421.91" y="68.96" class="st0" width="3.71" height="23.57"/>
				</g>
				<g>
					<polygon class="st0" points="432.78,68.96 439.6,85.29 446.5,68.96 450.58,68.96 439.52,94.29 428.72,68.96 					"/>
				</g>
				<g>
					<polygon class="st0" points="467.23,72.3 457.36,72.3 457.36,77.96 466.94,77.96 466.94,81.31 457.36,81.31 457.36,89.18 
						467.23,89.18 467.23,92.53 453.64,92.53 453.64,68.96 467.23,68.96 					"/>
				</g>
				<g>
					<path class="st0" d="M480.46,82.48l7.63,10.05h-4.55l-7.04-9.64h-0.66v9.64h-3.73V68.96h4.36c3.25,0,5.61,0.58,7.06,1.75
						c1.59,1.31,2.39,3.03,2.39,5.16c0,1.66-0.5,3.1-1.51,4.3C483.42,81.38,482.1,82.15,480.46,82.48 M475.84,79.78h1.17
						c3.52,0,5.29-1.29,5.29-3.86c0-2.41-1.71-3.62-5.13-3.62h-1.33V79.78z"/>
				</g>
				<g>
					<path class="st0" d="M505.71,72.47l-3,1.71c-0.57-0.94-1.1-1.55-1.62-1.83c-0.53-0.33-1.21-0.49-2.06-0.49
						c-1.03,0-1.89,0.28-2.56,0.84c-0.7,0.55-1.04,1.24-1.04,2.08c0,1.14,0.89,2.07,2.68,2.77l2.46,0.97c2,0.77,3.47,1.71,4.4,2.83
						c0.92,1.12,1.37,2.49,1.37,4.1c0,2.17-0.75,3.96-2.27,5.38c-1.52,1.42-3.4,2.14-5.66,2.14c-2.13,0-3.9-0.61-5.3-1.82
						c-1.36-1.21-2.23-2.91-2.57-5.11l3.77-0.79c0.17,1.38,0.47,2.34,0.9,2.87c0.76,1.01,1.87,1.53,3.34,1.53
						c1.17,0,2.13-0.37,2.9-1.11c0.76-0.75,1.15-1.69,1.15-2.83c0-0.45-0.07-0.88-0.2-1.26c-0.14-0.38-0.34-0.73-0.62-1.05
						c-0.29-0.32-0.65-0.63-1.09-0.9c-0.46-0.28-0.98-0.55-1.6-0.8l-2.38-0.94c-3.37-1.37-5.06-3.37-5.06-5.99
						c0-1.77,0.72-3.26,2.13-4.45c1.42-1.2,3.18-1.8,5.28-1.8C501.91,68.5,504.12,69.83,505.71,72.47"/>
				</g>
				<g>
					<rect x="510.84" y="68.96" class="st0" width="3.71" height="23.57"/>
				</g>
				<g>
					<path class="st0" d="M520.48,92.52V68.96h5.17c2.47,0,4.42,0.23,5.88,0.7c1.54,0.45,2.93,1.23,4.19,2.33
						c2.54,2.21,3.82,5.13,3.82,8.74c0,3.62-1.33,6.55-3.98,8.79c-1.33,1.12-2.72,1.9-4.18,2.34c-1.36,0.43-3.28,0.65-5.79,0.65
						H520.48z M524.19,89.18h1.68c1.68,0,3.06-0.17,4.16-0.5c1.11-0.36,2.1-0.93,3-1.69c1.83-1.6,2.74-3.68,2.74-6.24
						c0-2.59-0.9-4.68-2.71-6.29c-1.63-1.44-4.03-2.15-7.19-2.15h-1.68V89.18z"/>
				</g>
				<g>
					<path class="st0" d="M557.46,86.8h-10.55l-2.74,5.72h-4l12.19-25.05l11.75,25.05h-4.07L557.46,86.8z M555.94,83.46l-3.65-8.02
						l-3.82,8.02H555.94z"/>
				</g>
				<g>
					<path class="st0" d="M567.19,92.52V68.96h5.17c2.48,0,4.43,0.23,5.88,0.7c1.54,0.45,2.93,1.23,4.19,2.33
						c2.54,2.21,3.81,5.13,3.81,8.74c0,3.62-1.33,6.55-3.98,8.79c-1.33,1.12-2.72,1.9-4.17,2.34c-1.37,0.43-3.29,0.65-5.8,0.65
						H567.19z M570.91,89.18h1.67c1.68,0,3.06-0.17,4.16-0.5c1.1-0.36,2.1-0.93,3-1.69c1.83-1.6,2.74-3.68,2.74-6.24
						c0-2.59-0.9-4.68-2.7-6.29c-1.64-1.44-4.03-2.15-7.2-2.15h-1.67V89.18z"/>
				</g>
			</g>
			<g>
				<g>
					<polygon class="st0" points="382.84,105.61 373.96,105.61 373.96,111.47 382.52,111.47 382.52,114.93 373.96,114.93 
						373.96,126.54 370.11,126.54 370.11,102.16 382.84,102.16 					"/>
				</g>
				<g>
					<path class="st0" d="M395.92,116.14l7.89,10.39h-4.71l-7.28-9.97h-0.68v9.97h-3.86v-24.38h4.52c3.37,0,5.8,0.6,7.29,1.81
						c1.65,1.35,2.47,3.13,2.47,5.34c0,1.72-0.51,3.21-1.55,4.45C398.99,115,397.61,115.8,395.92,116.14 M391.14,113.35h1.21
						c3.65,0,5.46-1.33,5.46-4c0-2.49-1.76-3.74-5.3-3.74h-1.37V113.35z"/>
				</g>
				<g>
					<path class="st0" d="M422.62,120.61h-10.91l-2.84,5.92h-4.15l12.62-25.91l12.17,25.91h-4.22L422.62,120.61z M421.05,117.16
						l-3.79-8.29l-3.97,8.29H421.05z"/>
				</g>
				<g>
					<polygon class="st0" points="432.68,126.53 432.68,100.49 451.27,119.09 451.27,102.16 455.12,102.16 455.12,128.02 
						436.53,109.47 436.53,126.53 					"/>
				</g>
				<g>
					<path class="st0" d="M480.29,103.46v4.36c-2.22-1.78-4.52-2.67-6.9-2.67c-2.61,0-4.82,0.9-6.62,2.71
						c-1.8,1.79-2.7,3.98-2.7,6.56c0,2.56,0.9,4.72,2.7,6.47c1.81,1.76,4.02,2.64,6.64,2.64c1.34,0,2.49-0.21,3.45-0.63
						c0.52-0.22,1.07-0.5,1.64-0.86c0.57-0.35,1.16-0.79,1.79-1.29v4.44c-2.2,1.19-4.51,1.78-6.93,1.78c-3.65,0-6.75-1.22-9.33-3.64
						c-2.56-2.46-3.85-5.41-3.85-8.88c0-3.1,1.07-5.87,3.22-8.3c2.64-2.98,6.06-4.47,10.25-4.47
						C475.94,101.68,478.16,102.28,480.29,103.46"/>
				</g>
				<g>
					<rect x="485.14" y="102.16" class="st0" width="3.85" height="24.38"/>
				</g>
				<g>
					<path class="st0" d="M509.52,105.79l-3.12,1.77c-0.58-0.97-1.14-1.61-1.67-1.89c-0.54-0.35-1.25-0.51-2.12-0.51
						c-1.07,0-1.95,0.29-2.65,0.87c-0.71,0.57-1.06,1.28-1.06,2.15c0,1.18,0.92,2.14,2.77,2.87l2.53,1c2.07,0.8,3.6,1.77,4.55,2.92
						c0.96,1.15,1.43,2.57,1.43,4.24c0,2.24-0.78,4.1-2.34,5.56c-1.57,1.47-3.53,2.21-5.86,2.21c-2.2,0-4.04-0.63-5.48-1.88
						c-1.41-1.26-2.3-3.01-2.66-5.29l3.9-0.82c0.18,1.43,0.49,2.42,0.93,2.97c0.79,1.05,1.94,1.58,3.47,1.58
						c1.2,0,2.19-0.38,2.98-1.15c0.8-0.77,1.19-1.74,1.19-2.93c0-0.47-0.07-0.91-0.2-1.3c-0.15-0.39-0.36-0.76-0.65-1.09
						c-0.29-0.34-0.66-0.65-1.13-0.93c-0.46-0.29-1.01-0.57-1.64-0.83l-2.46-0.97c-3.49-1.42-5.24-3.48-5.24-6.19
						c0-1.83,0.73-3.37,2.19-4.6c1.47-1.24,3.29-1.86,5.47-1.86C505.57,101.68,507.87,103.05,509.52,105.79"/>
				</g>
				<g>
					<path class="st0" d="M533.66,103.46v4.36c-2.22-1.78-4.53-2.67-6.9-2.67c-2.62,0-4.83,0.9-6.62,2.71
						c-1.81,1.79-2.71,3.98-2.71,6.56c0,2.56,0.9,4.72,2.71,6.47c1.8,1.76,4.02,2.64,6.63,2.64c1.36,0,2.51-0.21,3.46-0.63
						c0.53-0.22,1.07-0.5,1.64-0.86c0.56-0.35,1.16-0.79,1.79-1.29v4.44c-2.21,1.19-4.53,1.78-6.94,1.78
						c-3.64,0-6.75-1.22-9.33-3.64c-2.56-2.46-3.84-5.41-3.84-8.88c0-3.1,1.06-5.87,3.21-8.3c2.63-2.98,6.05-4.47,10.25-4.47
						C529.3,101.68,531.52,102.28,533.66,103.46"/>
				</g>
				<g>
					<path class="st0" d="M537.07,114.23c0-3.44,1.31-6.38,3.95-8.84c2.61-2.47,5.76-3.7,9.44-3.7c3.64,0,6.74,1.24,9.34,3.73
						c2.6,2.48,3.92,5.47,3.92,8.95c0,3.5-1.32,6.48-3.94,8.92c-2.63,2.46-5.8,3.68-9.53,3.68c-3.29,0-6.25-1.09-8.85-3.27
						C538.51,121.3,537.07,118.14,537.07,114.23 M540.95,114.28c0,2.7,0.95,4.92,2.84,6.66c1.87,1.73,4.05,2.6,6.51,2.6
						c2.67,0,4.94-0.89,6.77-2.65c1.83-1.79,2.75-3.96,2.75-6.53c0-2.6-0.91-4.78-2.72-6.53c-1.8-1.77-4.04-2.65-6.7-2.65
						c-2.64,0-4.89,0.88-6.72,2.65C541.86,109.55,540.95,111.71,540.95,114.28"/>
				</g>
				<g>
					<path class="st0" d="M592.08,113.84h10.54v0.81c0,1.83-0.23,3.45-0.68,4.86c-0.44,1.3-1.18,2.53-2.23,3.67
						c-2.36,2.54-5.38,3.82-9.02,3.82c-3.57,0-6.63-1.23-9.16-3.7c-2.53-2.47-3.81-5.44-3.81-8.9c0-3.54,1.28-6.53,3.88-9
						c2.58-2.47,5.73-3.71,9.45-3.71c1.99,0,3.84,0.39,5.58,1.16c1.64,0.78,3.27,2.04,4.87,3.79l-2.74,2.51
						c-2.09-2.67-4.64-4-7.64-4c-2.69,0-4.97,0.89-6.78,2.67c-1.83,1.75-2.73,3.94-2.73,6.57c0,2.71,1.01,4.95,3.05,6.71
						c1.9,1.62,3.98,2.44,6.19,2.44c1.89,0,3.6-0.61,5.1-1.83c1.51-1.23,2.35-2.71,2.52-4.43h-6.35V113.84z"/>
				</g>
				<g>
					<path class="st0" d="M621.26,120.61h-10.91l-2.83,5.92h-4.15l12.61-25.91l12.17,25.91h-4.21L621.26,120.61z M619.7,117.16
						l-3.79-8.29l-3.96,8.29H619.7z"/>
				</g>
				<g>
					<polygon class="st0" points="630.62,102.16 637.67,119.05 644.82,102.16 649.03,102.16 637.59,128.36 626.42,102.16 					"/>
				</g>
				<g>
					<rect x="652.2" y="102.16" class="st0" width="3.85" height="24.38"/>
				</g>
				<g>
					<path class="st0" d="M662.17,126.53v-24.38h5.35c2.56,0,4.59,0.24,6.08,0.73c1.59,0.47,3.03,1.27,4.34,2.41
						c2.63,2.29,3.95,5.31,3.95,9.05c0,3.75-1.37,6.78-4.11,9.09c-1.38,1.16-2.82,1.96-4.34,2.42c-1.4,0.45-3.41,0.68-5.99,0.68
						H662.17z M666.01,123.07h1.73c1.72,0,3.17-0.17,4.3-0.52c1.15-0.37,2.19-0.96,3.12-1.75c1.89-1.65,2.83-3.8,2.83-6.46
						c0-2.68-0.93-4.84-2.8-6.51c-1.68-1.49-4.17-2.23-7.44-2.23h-1.73V123.07z"/>
				</g>
				<g>
					<rect x="686.72" y="102.16" class="st0" width="3.85" height="24.38"/>
				</g>
				<g>
					<path class="st0" d="M711.65,120.61h-10.91l-2.83,5.92h-4.15l12.61-25.91l12.16,25.91h-4.21L711.65,120.61z M710.08,117.16
						l-3.79-8.29l-3.96,8.29H710.08z"/>
				</g>
			</g>
			<g>
				<g>
					<path class="st1" d="M370.48,163.1v-12.07h4.55c0.8,0,1.41,0.04,1.84,0.12c0.59,0.1,1.09,0.29,1.49,0.56
						c0.4,0.28,0.72,0.67,0.97,1.16c0.24,0.5,0.37,1.05,0.37,1.65c0,1.03-0.33,1.89-0.98,2.61c-0.65,0.71-1.83,1.07-3.54,1.07h-3.1
						v4.91H370.48z M372.08,156.77h3.12c1.03,0,1.76-0.19,2.2-0.58c0.43-0.38,0.65-0.92,0.65-1.62c0-0.51-0.13-0.94-0.38-1.3
						c-0.26-0.36-0.59-0.6-1.01-0.71c-0.27-0.07-0.77-0.11-1.49-0.11h-3.09V156.77z"/>
				</g>
				<g>
					<path class="st1" d="M380.99,158.73c0-1.62,0.45-2.82,1.35-3.6c0.75-0.65,1.67-0.97,2.75-0.97c1.2,0,2.18,0.39,2.95,1.18
						c0.76,0.79,1.14,1.88,1.14,3.26c0,1.12-0.17,2.01-0.51,2.65c-0.34,0.65-0.83,1.15-1.47,1.5c-0.65,0.36-1.35,0.54-2.11,0.54
						c-1.22,0-2.21-0.39-2.97-1.18C381.36,161.33,380.99,160.2,380.99,158.73z M382.51,158.73c0,1.12,0.24,1.96,0.73,2.51
						c0.49,0.56,1.1,0.84,1.84,0.84c0.73,0,1.35-0.28,1.84-0.84c0.49-0.56,0.73-1.41,0.73-2.56c0-1.08-0.25-1.9-0.74-2.46
						c-0.49-0.56-1.1-0.84-1.83-0.84c-0.74,0-1.36,0.28-1.84,0.83C382.75,156.77,382.51,157.61,382.51,158.73z"/>
				</g>
				<g>
					<path class="st1" d="M392.53,163.1l-2.68-8.74h1.53l1.39,5.05l0.52,1.88c0.02-0.09,0.17-0.69,0.45-1.8l1.39-5.12h1.52
						l1.31,5.07l0.44,1.67l0.5-1.69l1.5-5.05h1.44l-2.73,8.74h-1.54l-1.39-5.24l-0.34-1.49l-1.77,6.73H392.53z"/>
				</g>
				<g>
					<path class="st1" d="M409.07,160.28l1.53,0.19c-0.24,0.89-0.69,1.59-1.34,2.08c-0.65,0.49-1.49,0.74-2.5,0.74
						c-1.28,0-2.29-0.39-3.04-1.18c-0.75-0.79-1.12-1.89-1.12-3.31c0-1.47,0.38-2.61,1.14-3.42s1.74-1.22,2.95-1.22
						c1.17,0,2.12,0.4,2.86,1.19c0.74,0.8,1.11,1.92,1.11,3.36c0,0.09,0,0.22-0.01,0.4h-6.52c0.05,0.96,0.33,1.7,0.81,2.21
						c0.49,0.51,1.1,0.77,1.83,0.77c0.54,0,1.01-0.14,1.39-0.43C408.54,161.36,408.85,160.91,409.07,160.28z M404.21,157.89h4.88
						c-0.07-0.74-0.25-1.29-0.56-1.65c-0.47-0.57-1.08-0.86-1.84-0.86c-0.68,0-1.25,0.23-1.72,0.68
						C404.51,156.51,404.26,157.12,404.21,157.89z"/>
				</g>
				<g>
					<path class="st1" d="M412.45,163.1v-8.74h1.33v1.33c0.34-0.62,0.65-1.03,0.94-1.23c0.29-0.2,0.61-0.3,0.95-0.3
						c0.5,0,1.01,0.16,1.52,0.48l-0.51,1.37c-0.36-0.21-0.72-0.32-1.09-0.32c-0.32,0-0.62,0.1-0.87,0.29
						c-0.26,0.19-0.44,0.47-0.55,0.81c-0.16,0.53-0.25,1.1-0.25,1.73v4.58H412.45z"/>
				</g>
				<g>
					<path class="st1" d="M424.06,160.28l1.53,0.19c-0.24,0.89-0.69,1.59-1.34,2.08c-0.65,0.49-1.49,0.74-2.5,0.74
						c-1.28,0-2.29-0.39-3.04-1.18c-0.75-0.79-1.12-1.89-1.12-3.31c0-1.47,0.38-2.61,1.14-3.42s1.74-1.22,2.95-1.22
						c1.17,0,2.12,0.4,2.86,1.19s1.11,1.92,1.11,3.36c0,0.09,0,0.22-0.01,0.4h-6.52c0.05,0.96,0.33,1.7,0.81,2.21
						c0.49,0.51,1.1,0.77,1.83,0.77c0.54,0,1.01-0.14,1.39-0.43C423.53,161.36,423.84,160.91,424.06,160.28z M419.2,157.89h4.88
						c-0.07-0.74-0.25-1.29-0.56-1.65c-0.47-0.57-1.08-0.86-1.84-0.86c-0.68,0-1.25,0.23-1.72,0.68
						C419.51,156.51,419.25,157.12,419.2,157.89z"/>
				</g>
				<g>
					<path class="st1" d="M433.13,163.1v-1.1c-0.55,0.87-1.37,1.3-2.44,1.3c-0.7,0-1.34-0.19-1.92-0.58
						c-0.58-0.38-1.04-0.92-1.36-1.61c-0.32-0.69-0.48-1.48-0.48-2.37c0-0.87,0.15-1.66,0.44-2.37c0.29-0.71,0.73-1.26,1.31-1.63
						c0.58-0.38,1.23-0.57,1.95-0.57c0.53,0,1,0.11,1.41,0.33c0.41,0.22,0.75,0.51,1,0.87v-4.33h1.47v12.07H433.13z M428.44,158.73
						c0,1.12,0.24,1.96,0.71,2.51c0.47,0.55,1.03,0.83,1.67,0.83c0.65,0,1.2-0.26,1.65-0.79s0.68-1.34,0.68-2.42
						c0-1.2-0.23-2.07-0.69-2.63s-1.03-0.84-1.7-0.84c-0.66,0-1.21,0.27-1.65,0.81C428.66,156.73,428.44,157.58,428.44,158.73z"/>
				</g>
				<g>
					<path class="st1" d="M442.88,163.1h-1.37v-12.07h1.48v4.31c0.63-0.79,1.42-1.18,2.4-1.18c0.54,0,1.05,0.11,1.53,0.33
						c0.48,0.22,0.87,0.52,1.19,0.91c0.31,0.39,0.55,0.87,0.73,1.42c0.18,0.55,0.26,1.15,0.26,1.78c0,1.5-0.37,2.66-1.11,3.47
						c-0.74,0.82-1.63,1.23-2.67,1.23c-1.03,0-1.84-0.43-2.43-1.29V163.1z M442.87,158.66c0,1.05,0.14,1.81,0.43,2.27
						c0.47,0.76,1.1,1.14,1.89,1.14c0.65,0,1.21-0.28,1.68-0.84c0.47-0.56,0.71-1.4,0.71-2.51c0-1.14-0.23-1.98-0.68-2.53
						s-1-0.81-1.64-0.81c-0.65,0-1.21,0.28-1.68,0.84C443.1,156.78,442.87,157.59,442.87,158.66z"/>
				</g>
				<g>
					<path class="st1" d="M450.83,166.46l-0.16-1.39c0.32,0.09,0.61,0.13,0.85,0.13c0.33,0,0.59-0.05,0.79-0.16s0.36-0.26,0.49-0.46
						c0.09-0.15,0.24-0.52,0.45-1.1c0.03-0.08,0.07-0.2,0.13-0.36l-3.32-8.76h1.6l1.82,5.06c0.24,0.64,0.45,1.32,0.63,2.03
						c0.17-0.68,0.37-1.34,0.61-1.99l1.87-5.1h1.48l-3.33,8.89c-0.36,0.96-0.63,1.62-0.83,1.98c-0.26,0.49-0.57,0.85-0.91,1.07
						c-0.34,0.23-0.75,0.34-1.22,0.34C451.5,166.64,451.18,166.58,450.83,166.46z"/>
				</g>
				<g>
					<path class="st1" d="M479.05,163.1h-3.31l-1.32-3.43h-6.03l-1.25,3.43h-3.23l5.88-15.09h3.22L479.05,163.1z M473.44,157.13
						l-2.08-5.6l-2.04,5.6H473.44z"/>
				</g>
				<g>
					<path class="st1" d="M483.42,163.1h-2.89v-10.93h2.69v1.55c0.46-0.73,0.87-1.22,1.24-1.45c0.37-0.23,0.78-0.35,1.25-0.35
						c0.66,0,1.29,0.18,1.9,0.55l-0.89,2.52c-0.49-0.32-0.94-0.47-1.36-0.47c-0.41,0-0.75,0.11-1.03,0.33
						c-0.28,0.22-0.5,0.63-0.66,1.21c-0.16,0.58-0.24,1.8-0.24,3.66V163.1z"/>
				</g>
				<g>
					<path class="st1" d="M488.85,150.69v-2.68h2.89v2.68H488.85z M488.85,163.1v-10.93h2.89v10.93H488.85z"/>
				</g>
				<g>
					<path class="st1" d="M493.54,163.1v-2.25l4.1-4.7c0.67-0.77,1.17-1.31,1.49-1.64c-0.34,0.02-0.78,0.03-1.33,0.04l-3.86,0.02
						v-2.4h9.03v2.05l-4.18,4.82l-1.47,1.59c0.8-0.05,1.3-0.07,1.49-0.07h4.48v2.54H493.54z"/>
				</g>
				<g>
					<path class="st1" d="M504.57,157.48c0-0.96,0.24-1.89,0.71-2.79c0.47-0.9,1.14-1.58,2.01-2.06c0.87-0.47,1.84-0.71,2.91-0.71
						c1.65,0,3.01,0.54,4.06,1.61c1.06,1.07,1.58,2.43,1.58,4.07c0,1.65-0.53,3.02-1.6,4.11c-1.07,1.09-2.41,1.63-4.03,1.63
						c-1,0-1.96-0.23-2.87-0.68c-0.91-0.45-1.6-1.12-2.07-1.99C504.81,159.8,504.57,158.73,504.57,157.48z M507.54,157.63
						c0,1.08,0.26,1.91,0.77,2.49c0.51,0.58,1.15,0.86,1.9,0.86c0.75,0,1.39-0.29,1.9-0.86c0.51-0.58,0.77-1.41,0.77-2.51
						c0-1.07-0.26-1.89-0.77-2.47c-0.51-0.58-1.14-0.86-1.9-0.86c-0.76,0-1.39,0.29-1.9,0.86
						C507.79,155.72,507.54,156.55,507.54,157.63z"/>
				</g>
				<g>
					<path class="st1" d="M528.05,163.1h-2.89v-5.58c0-1.18-0.06-1.94-0.19-2.29c-0.12-0.35-0.32-0.62-0.6-0.81
						c-0.28-0.19-0.61-0.29-1-0.29c-0.5,0-0.95,0.14-1.35,0.41c-0.4,0.27-0.67,0.64-0.82,1.09c-0.15,0.45-0.22,1.29-0.22,2.51v4.95
						h-2.89v-10.93h2.69v1.61c0.95-1.23,2.15-1.85,3.6-1.85c0.64,0,1.22,0.12,1.75,0.34c0.53,0.23,0.93,0.52,1.2,0.88
						c0.27,0.36,0.46,0.76,0.57,1.21c0.11,0.45,0.16,1.1,0.16,1.95V163.1z"/>
				</g>
				<g>
					<path class="st1" d="M533.15,155.5l-2.62-0.47c0.29-1.06,0.8-1.84,1.52-2.35c0.72-0.51,1.79-0.76,3.21-0.76
						c1.29,0,2.25,0.15,2.88,0.46c0.63,0.31,1.07,0.69,1.33,1.16c0.26,0.47,0.39,1.33,0.39,2.59l-0.03,3.38
						c0,0.96,0.05,1.67,0.14,2.13c0.09,0.46,0.27,0.95,0.52,1.47h-2.86c-0.08-0.19-0.17-0.48-0.28-0.85
						c-0.05-0.17-0.08-0.28-0.1-0.34c-0.49,0.48-1.02,0.84-1.58,1.08c-0.56,0.24-1.16,0.36-1.8,0.36c-1.13,0-2.01-0.31-2.66-0.92
						c-0.65-0.61-0.97-1.38-0.97-2.32c0-0.62,0.15-1.17,0.44-1.65c0.29-0.48,0.71-0.85,1.24-1.11c0.53-0.26,1.3-0.48,2.3-0.67
						c1.35-0.25,2.29-0.49,2.81-0.71v-0.29c0-0.56-0.14-0.95-0.41-1.19c-0.27-0.24-0.79-0.35-1.55-0.35c-0.51,0-0.92,0.1-1.2,0.3
						S533.33,154.99,533.15,155.5z M537.02,157.85c-0.37,0.12-0.96,0.27-1.76,0.44c-0.8,0.17-1.33,0.34-1.57,0.5
						c-0.38,0.27-0.57,0.61-0.57,1.02c0,0.4,0.15,0.75,0.45,1.05c0.3,0.3,0.69,0.44,1.15,0.44c0.52,0,1.02-0.17,1.49-0.51
						c0.35-0.26,0.58-0.58,0.69-0.96c0.08-0.25,0.11-0.72,0.11-1.41V157.85z"/>
				</g>
				<g>
					<path class="st1" d="M547.81,158.19l2.96-0.29c0.18,0.99,0.54,1.73,1.09,2.19c0.55,0.47,1.28,0.7,2.21,0.7
						c0.98,0,1.72-0.21,2.22-0.62c0.5-0.41,0.75-0.9,0.75-1.46c0-0.36-0.1-0.66-0.31-0.91c-0.21-0.25-0.57-0.47-1.1-0.65
						c-0.36-0.12-1.17-0.34-2.44-0.66c-1.63-0.4-2.78-0.9-3.44-1.49c-0.93-0.83-1.39-1.84-1.39-3.04c0-0.77,0.22-1.49,0.65-2.16
						c0.44-0.67,1.06-1.18,1.88-1.53c0.82-0.35,1.81-0.52,2.97-0.52c1.89,0,3.32,0.42,4.28,1.24c0.96,0.83,1.46,1.94,1.51,3.32
						l-3.05,0.13c-0.13-0.78-0.41-1.33-0.84-1.67c-0.43-0.34-1.07-0.51-1.93-0.51c-0.88,0-1.58,0.18-2.08,0.55
						c-0.32,0.23-0.48,0.55-0.48,0.94c0,0.36,0.15,0.66,0.45,0.92c0.38,0.32,1.32,0.66,2.8,1.01c1.48,0.35,2.58,0.71,3.29,1.09
						c0.71,0.37,1.27,0.88,1.67,1.53c0.4,0.65,0.6,1.45,0.6,2.4c0,0.86-0.24,1.67-0.72,2.43c-0.48,0.75-1.16,1.32-2.04,1.68
						c-0.88,0.37-1.97,0.55-3.28,0.55c-1.91,0-3.37-0.44-4.39-1.32C548.62,161.16,548.01,159.88,547.81,158.19z"/>
				</g>
				<g>
					<path class="st1" d="M567.63,152.17v2.31h-1.98v4.4c0,0.89,0.02,1.41,0.06,1.56c0.04,0.15,0.12,0.27,0.26,0.37
						c0.13,0.1,0.3,0.14,0.49,0.14c0.27,0,0.66-0.09,1.16-0.28l0.25,2.24c-0.67,0.29-1.43,0.43-2.28,0.43
						c-0.52,0-0.99-0.09-1.41-0.26c-0.42-0.18-0.73-0.4-0.92-0.68c-0.2-0.28-0.33-0.65-0.41-1.13c-0.06-0.34-0.09-1.01-0.09-2.04
						v-4.76h-1.33v-2.31h1.33V150l2.9-1.69v3.86H567.63z"/>
				</g>
				<g>
					<path class="st1" d="M571.8,155.5l-2.62-0.47c0.29-1.06,0.8-1.84,1.52-2.35c0.72-0.51,1.79-0.76,3.21-0.76
						c1.29,0,2.25,0.15,2.88,0.46c0.63,0.31,1.08,0.69,1.33,1.16c0.26,0.47,0.39,1.33,0.39,2.59l-0.03,3.38
						c0,0.96,0.05,1.67,0.14,2.13c0.09,0.46,0.27,0.95,0.52,1.47h-2.86c-0.08-0.19-0.17-0.48-0.28-0.85
						c-0.05-0.17-0.08-0.28-0.1-0.34c-0.49,0.48-1.02,0.84-1.58,1.08c-0.56,0.24-1.16,0.36-1.8,0.36c-1.13,0-2.01-0.31-2.66-0.92
						c-0.65-0.61-0.97-1.38-0.97-2.32c0-0.62,0.15-1.17,0.44-1.65c0.29-0.48,0.71-0.85,1.24-1.11c0.53-0.26,1.3-0.48,2.3-0.67
						c1.35-0.25,2.29-0.49,2.81-0.71v-0.29c0-0.56-0.14-0.95-0.41-1.19c-0.27-0.24-0.79-0.35-1.55-0.35c-0.51,0-0.92,0.1-1.2,0.3
						C572.21,154.64,571.98,154.99,571.8,155.5z M575.67,157.85c-0.37,0.12-0.96,0.27-1.76,0.44c-0.8,0.17-1.33,0.34-1.57,0.5
						c-0.38,0.27-0.57,0.61-0.57,1.02c0,0.4,0.15,0.75,0.45,1.05c0.3,0.3,0.69,0.44,1.15,0.44c0.52,0,1.02-0.17,1.49-0.51
						c0.35-0.26,0.58-0.58,0.69-0.96c0.08-0.25,0.11-0.72,0.11-1.41V157.85z"/>
				</g>
				<g>
					<path class="st1" d="M586.37,152.17v2.31h-1.98v4.4c0,0.89,0.02,1.41,0.06,1.56c0.04,0.15,0.12,0.27,0.26,0.37
						c0.13,0.1,0.3,0.14,0.49,0.14c0.27,0,0.66-0.09,1.16-0.28l0.25,2.24c-0.67,0.29-1.43,0.43-2.29,0.43
						c-0.52,0-0.99-0.09-1.41-0.26c-0.42-0.18-0.73-0.4-0.92-0.68c-0.2-0.28-0.33-0.65-0.41-1.13c-0.06-0.34-0.09-1.01-0.09-2.04
						v-4.76h-1.33v-2.31h1.33V150l2.9-1.69v3.86H586.37z"/>
				</g>
				<g>
					<path class="st1" d="M594.7,159.62l2.88,0.48c-0.37,1.06-0.96,1.86-1.75,2.41c-0.8,0.55-1.8,0.83-3,0.83
						c-1.9,0-3.31-0.62-4.22-1.86c-0.72-0.99-1.08-2.25-1.08-3.77c0-1.81,0.47-3.23,1.42-4.26c0.95-1.03,2.14-1.54,3.59-1.54
						c1.63,0,2.91,0.54,3.85,1.61c0.94,1.07,1.39,2.72,1.35,4.93h-7.24c0.02,0.86,0.25,1.52,0.7,2c0.45,0.48,1,0.72,1.67,0.72
						c0.45,0,0.83-0.12,1.14-0.37C594.31,160.57,594.55,160.17,594.7,159.62z M594.87,156.7c-0.02-0.84-0.24-1.47-0.65-1.91
						c-0.41-0.44-0.91-0.65-1.5-0.65c-0.63,0-1.15,0.23-1.56,0.69c-0.41,0.46-0.61,1.08-0.61,1.87H594.87z"/>
				</g>
				<g>
					<path class="st1" d="M605.95,148.01H609v8.17c0,1.3,0.04,2.14,0.11,2.52c0.13,0.62,0.44,1.11,0.93,1.49
						c0.49,0.37,1.16,0.56,2.01,0.56c0.86,0,1.52-0.18,1.96-0.53c0.44-0.35,0.7-0.79,0.79-1.3c0.09-0.51,0.13-1.37,0.13-2.56v-8.35
						h3.05v7.92c0,1.81-0.08,3.09-0.25,3.84c-0.16,0.75-0.47,1.38-0.91,1.89c-0.44,0.51-1.03,0.92-1.78,1.23s-1.71,0.46-2.9,0.46
						c-1.44,0-2.53-0.17-3.28-0.5c-0.74-0.33-1.33-0.76-1.77-1.3c-0.43-0.53-0.72-1.09-0.85-1.67c-0.2-0.86-0.3-2.14-0.3-3.83
						V148.01z"/>
				</g>
				<g>
					<path class="st1" d="M631.11,163.1h-2.89v-5.58c0-1.18-0.06-1.94-0.19-2.29c-0.12-0.35-0.32-0.62-0.6-0.81
						c-0.28-0.19-0.61-0.29-1-0.29c-0.5,0-0.95,0.14-1.35,0.41c-0.4,0.27-0.67,0.64-0.82,1.09c-0.15,0.45-0.22,1.29-0.22,2.51v4.95
						h-2.89v-10.93h2.69v1.61c0.95-1.23,2.15-1.85,3.6-1.85c0.64,0,1.22,0.12,1.75,0.34c0.53,0.23,0.93,0.52,1.2,0.88
						c0.27,0.36,0.46,0.76,0.57,1.21c0.11,0.45,0.16,1.1,0.16,1.95V163.1z"/>
				</g>
				<g>
					<path class="st1" d="M634.04,150.69v-2.68h2.89v2.68H634.04z M634.04,163.1v-10.93h2.89v10.93H634.04z"/>
				</g>
				<g>
					<path class="st1" d="M642.9,163.1l-4.4-10.93h3.04l2.06,5.58l0.6,1.86c0.16-0.47,0.26-0.79,0.3-0.94
						c0.1-0.31,0.2-0.62,0.31-0.93l2.08-5.58h2.97l-4.34,10.93H642.9z"/>
				</g>
				<g>
					<path class="st1" d="M657.95,159.62l2.88,0.48c-0.37,1.06-0.96,1.86-1.75,2.41c-0.8,0.55-1.8,0.83-3,0.83
						c-1.9,0-3.31-0.62-4.22-1.86c-0.72-0.99-1.08-2.25-1.08-3.77c0-1.81,0.47-3.23,1.42-4.26c0.95-1.03,2.14-1.54,3.59-1.54
						c1.63,0,2.91,0.54,3.85,1.61c0.94,1.07,1.39,2.72,1.35,4.93h-7.24c0.02,0.86,0.25,1.52,0.7,2c0.45,0.48,1,0.72,1.67,0.72
						c0.45,0,0.83-0.12,1.14-0.37C657.56,160.57,657.79,160.17,657.95,159.62z M658.11,156.7c-0.02-0.84-0.24-1.47-0.65-1.91
						s-0.91-0.65-1.5-0.65c-0.63,0-1.15,0.23-1.56,0.69c-0.41,0.46-0.61,1.08-0.61,1.87H658.11z"/>
				</g>
				<g>
					<path class="st1" d="M666.11,163.1h-2.89v-10.93h2.69v1.55c0.46-0.73,0.87-1.22,1.24-1.45c0.37-0.23,0.78-0.35,1.25-0.35
						c0.66,0,1.29,0.18,1.9,0.55l-0.89,2.52c-0.49-0.32-0.94-0.47-1.36-0.47c-0.41,0-0.75,0.11-1.03,0.33
						c-0.28,0.22-0.5,0.63-0.66,1.21c-0.16,0.58-0.24,1.8-0.24,3.66V163.1z"/>
				</g>
				<g>
					<path class="st1" d="M670.52,159.98l2.9-0.44c0.12,0.56,0.37,0.99,0.75,1.28c0.38,0.29,0.91,0.44,1.59,0.44
						c0.75,0,1.31-0.14,1.69-0.41c0.25-0.19,0.38-0.45,0.38-0.77c0-0.22-0.07-0.4-0.21-0.55c-0.14-0.14-0.47-0.26-0.97-0.38
						c-2.33-0.51-3.81-0.98-4.43-1.41c-0.86-0.59-1.3-1.41-1.3-2.46c0-0.95,0.37-1.74,1.12-2.39c0.75-0.64,1.91-0.97,3.48-0.97
						c1.5,0,2.61,0.24,3.33,0.73c0.73,0.49,1.23,1.21,1.5,2.16l-2.73,0.5c-0.12-0.43-0.34-0.75-0.66-0.98
						c-0.33-0.23-0.79-0.34-1.39-0.34c-0.76,0-1.31,0.11-1.64,0.32c-0.22,0.15-0.33,0.35-0.33,0.59c0,0.21,0.1,0.38,0.29,0.52
						c0.26,0.19,1.16,0.46,2.7,0.81c1.54,0.35,2.61,0.78,3.23,1.29c0.6,0.52,0.91,1.23,0.91,2.15c0,1-0.42,1.86-1.26,2.58
						c-0.84,0.72-2.08,1.08-3.71,1.08c-1.49,0-2.67-0.3-3.54-0.91C671.36,161.83,670.79,161.01,670.52,159.98z"/>
				</g>
				<g>
					<path class="st1" d="M683.26,150.69v-2.68h2.89v2.68H683.26z M683.26,163.1v-10.93h2.89v10.93H683.26z"/>
				</g>
				<g>
					<path class="st1" d="M694.13,152.17v2.31h-1.98v4.4c0,0.89,0.02,1.41,0.06,1.56c0.04,0.15,0.12,0.27,0.26,0.37
						c0.13,0.1,0.3,0.14,0.49,0.14c0.27,0,0.66-0.09,1.16-0.28l0.25,2.24c-0.67,0.29-1.43,0.43-2.28,0.43
						c-0.52,0-0.99-0.09-1.41-0.26c-0.42-0.18-0.73-0.4-0.92-0.68c-0.2-0.28-0.33-0.65-0.41-1.13c-0.06-0.34-0.09-1.01-0.09-2.04
						v-4.76h-1.33v-2.31h1.33V150l2.9-1.69v3.86H694.13z"/>
				</g>
				<g>
					<path class="st1" d="M694.77,152.17h3.08l2.61,7.76l2.55-7.76H706l-3.86,10.52l-0.69,1.9c-0.25,0.64-0.5,1.12-0.73,1.46
						c-0.23,0.34-0.49,0.61-0.79,0.82c-0.3,0.21-0.67,0.37-1.1,0.49c-0.44,0.12-0.93,0.17-1.48,0.17c-0.56,0-1.1-0.06-1.64-0.17
						l-0.26-2.26c0.45,0.09,0.86,0.13,1.22,0.13c0.67,0,1.17-0.2,1.49-0.59c0.32-0.39,0.57-0.9,0.74-1.51L694.77,152.17z"/>
				</g>
				<path class="st1" d="M712.86,148.34v1.69h0.35c0.35,0,0.48-0.01,0.67-0.02c0.22-0.01,0.95-0.05,0.95-0.83
					c0-0.11-0.01-0.51-0.43-0.73c-0.21-0.11-0.47-0.11-1.07-0.11H712.86L712.86,148.34z M711.86,147.46h1.72
					c0.72,0.01,1.2,0.01,1.68,0.39c0.34,0.28,0.6,0.7,0.6,1.33c0,1.03-0.76,1.39-1.06,1.49l1.2,2.2h-1.16l-1.07-2.01h-0.9v2.01h-1
					V147.46L711.86,147.46z M713.65,145.35c-2.63,0-4.86,2.07-4.86,4.87c0,2.89,2.33,4.87,4.86,4.87c2.75,0,4.87-2.15,4.88-4.84
					C718.54,147.58,716.48,145.35,713.65,145.35L713.65,145.35z M713.66,154.52c-2.38,0-4.31-1.89-4.31-4.3
					c0-2.36,1.89-4.3,4.32-4.3c2.46,0,4.31,1.96,4.29,4.32C717.95,152.62,716.09,154.52,713.66,154.52L713.66,154.52z"/>
			</g>
			<g>
				<rect x="369.78" y="135.35" class="st1" width="349.6" height="1.35"/>
			</g>
		</g>
		<g>
			<path class="st0" d="M176.66,167.76h34.32v-35.37h29.95v-26.13h-29.95V93.73h32.88V67.51h-67.21V167.76z M184.78,75.89h50.98
				v9.44h-32.92v29.29h30.02v9.4h-30.02v35.37h-18.06V75.89z"/>
			<path class="st0" d="M132.59,125.86c0,6.59-1.62,11.43-12.46,11.59h-0.47c-10.78,0-12.46-4.91-12.46-11.59V67.51H72.61v58.69
				c0,15.67,9.63,41.58,46.32,41.58h2.23c36.43-0.16,46.01-25.96,46.01-41.58V67.51h-34.58V125.86z M140.65,126.12V75.89h18.41
				v49.78c0,6.68-2.5,33.53-37.96,33.7h-2.13c-35.78,0-38.29-26.99-38.29-33.7V75.89h18.4v50.23c0,3.62-0.47,18.91,20.13,19.69h0.74
				C141.13,145.04,140.65,129.74,140.65,126.12z"/>
			<path class="st0" d="M302.33,108.14v21.62h16.28c0,0-3.55,9.04-15.91,9.04c-10.51,0-19.54-8.83-19.54-21.19
				c0-12.37,6.01-21.32,19.54-21.32c2.73,0,7.9,0.55,17.99,5.16l32.05-9.25c0,0-10.83-24.43-50.07-24.43
				c-15.77,0-27.5,4.47-36.64,12.31c-11.04,9.47-16.82,24.8-16.82,37.53c0,11.99,4.25,26.24,16.88,37.6
				c8.31,7.48,20.5,12.3,36.58,12.3c11.69,0,27.28-3.14,36.27-12c10.23-10.09,17.37-22.21,17.37-37.84v-9.54H302.33z M348.31,121.33
				c-0.16,1.48-0.35,3.01-0.83,5.01c-0.73,3.01-1.96,6.54-4,10.32c-2.23,4.15-5.44,8.62-10.03,13.07
				c-6.29,5.91-18.28,9.66-30.67,9.66c-35.09,0-45.79-25.59-45.79-41.74c0-8.53,4-23.12,14.68-31.92
				c7.11-5.85,15.96-9.83,31.04-9.83c26.64,0,36.22,11.9,36.22,11.9l-17.59,5.1c0,0-9.94-4.69-18.62-4.69
				c-15.1,0-27.39,9.53-27.39,29.44c0,9.07,5.87,29.27,27.39,29.27c11.72,0,25.4-7.43,25.4-25.28h-17.96v-5.41h38.28
				C348.44,116.23,348.6,118.3,348.31,121.33z"/>
			<path class="st2" d="M119.96,145.81h-0.74c-20.6-0.77-20.13-16.07-20.13-19.69V75.89h-18.4v49.78c0,6.7,2.51,33.7,38.29,33.7
				h2.13c35.46-0.17,37.96-27.01,37.96-33.7V75.89h-18.41v50.23C140.65,129.74,141.13,145.04,119.96,145.81z"/>
			<path class="st2" d="M310.15,116.23v5.41h17.96c0,17.85-13.68,25.28-25.4,25.28c-21.52,0-27.39-20.2-27.39-29.27
				c0-19.91,12.29-29.44,27.39-29.44c8.68,0,18.62,4.69,18.62,4.69l17.59-5.1c0,0-9.58-11.9-36.22-11.9
				c-15.08,0-23.93,3.98-31.04,9.83c-10.68,8.8-14.68,23.39-14.68,31.92c0,16.15,10.7,41.74,45.79,41.74
				c12.4,0,24.39-3.75,30.67-9.66c4.59-4.45,7.8-8.91,10.03-13.07c2.03-3.78,3.26-7.31,4-10.32c0.48-2,0.67-3.53,0.83-5.01
				c0.29-3.03,0.13-5.1,0.13-5.1H310.15z"/>
			<polygon class="st2" points="202.84,124.02 232.86,124.02 232.86,114.62 202.84,114.62 202.84,85.33 235.76,85.33 235.76,75.89 
				184.78,75.89 184.78,159.39 202.84,159.39 			"/>
		</g>
	</g>
</g>
</svg>
